<?xml version="1.0" encoding="UTF-8"?> <svg xmlns="http://www.w3.org/2000/svg" viewBox="1989.7498779296875 2489.74072265625 20.5 20.5" width="20.5" height="20.5"><path fill="none" stroke="black" fill-opacity="1" stroke-width="0.5" stroke-opacity="1" alignment-baseline="baseline" baseline-shift="baseline" color="rgb(51, 51, 51)" font-size-adjust="none" x="0.75" y="0.75" width="7.5" height="7.5" id="tSvg7c272671c4" title="Rectangle 1" d="M 1990.2498779296875 2490.24072265625 C 1992.7498779296875 2490.24072265625 1995.2498779296875 2490.24072265625 1997.7498779296875 2490.24072265625 C 1997.7498779296875 2492.74072265625 1997.7498779296875 2495.24072265625 1997.7498779296875 2497.74072265625 C 1995.2498779296875 2497.74072265625 1992.7498779296875 2497.74072265625 1990.2498779296875 2497.74072265625C 1990.2498779296875 2495.24072265625 1990.2498779296875 2492.74072265625 1990.2498779296875 2490.24072265625Z"></path><path fill="none" stroke="black" fill-opacity="1" stroke-width="0.5" stroke-opacity="1" alignment-baseline="baseline" baseline-shift="baseline" color="rgb(51, 51, 51)" font-size-adjust="none" x="12.75" y="0.75" width="7.5" height="7.5" id="tSvg1000e154bb2" title="Rectangle 2" d="M 2002.2498779296875 2490.24072265625 C 2004.7498779296875 2490.24072265625 2007.2498779296875 2490.24072265625 2009.7498779296875 2490.24072265625 C 2009.7498779296875 2492.74072265625 2009.7498779296875 2495.24072265625 2009.7498779296875 2497.74072265625 C 2007.2498779296875 2497.74072265625 2004.7498779296875 2497.74072265625 2002.2498779296875 2497.74072265625C 2002.2498779296875 2495.24072265625 2002.2498779296875 2492.74072265625 2002.2498779296875 2490.24072265625Z"></path><path fill="none" stroke="black" fill-opacity="1" stroke-width="0.5" stroke-opacity="1" alignment-baseline="baseline" baseline-shift="baseline" color="rgb(51, 51, 51)" font-size-adjust="none" x="0.75" y="12.75" width="7.5" height="7.5" id="tSvg17630c85ee6" title="Rectangle 3" d="M 1990.2498779296875 2502.24072265625 C 1992.7498779296875 2502.24072265625 1995.2498779296875 2502.24072265625 1997.7498779296875 2502.24072265625 C 1997.7498779296875 2504.74072265625 1997.7498779296875 2507.24072265625 1997.7498779296875 2509.74072265625 C 1995.2498779296875 2509.74072265625 1992.7498779296875 2509.74072265625 1990.2498779296875 2509.74072265625C 1990.2498779296875 2507.24072265625 1990.2498779296875 2504.74072265625 1990.2498779296875 2502.24072265625Z"></path><path fill="none" stroke="black" fill-opacity="1" stroke-width="0.5" stroke-opacity="1" alignment-baseline="baseline" baseline-shift="baseline" color="rgb(51, 51, 51)" font-size-adjust="none" x="12.75" y="12.75" width="7.5" height="7.5" id="tSvg7d5412550a" title="Rectangle 4" d="M 2002.2498779296875 2502.24072265625 C 2004.7498779296875 2502.24072265625 2007.2498779296875 2502.24072265625 2009.7498779296875 2502.24072265625 C 2009.7498779296875 2504.74072265625 2009.7498779296875 2507.24072265625 2009.7498779296875 2509.74072265625 C 2007.2498779296875 2509.74072265625 2004.7498779296875 2509.74072265625 2002.2498779296875 2509.74072265625C 2002.2498779296875 2507.24072265625 2002.2498779296875 2504.74072265625 2002.2498779296875 2502.24072265625Z"></path><defs> </defs></svg> 