<?xml version="1.0" encoding="UTF-8"?> <svg xmlns="http://www.w3.org/2000/svg" viewBox="1989.7498779296875 2489.74072265625 20.5 20.5" width="20.5" height="20.5"><path fill="transparent" fill-opacity="1" stroke="#000000" stroke-opacity="1" stroke-width="0.5" id="tSvg4724ca83f" d="M 1993.2498779296875 2491L 1993.8112128456269 2492.727388770372L 1995.6275192204255 2492.7274575140627L 1994.1581369027494 2493.795111229628L 1994.7193410604186 2495.5225424859373L 1993.2498779296875 2494.455L 1991.7804147989564 2495.5225424859373L 1992.3416189566256 2493.795111229628L 1990.8722366389495 2492.7274575140627L 1992.6885430137481 2492.727388770372Z" title="Star 1"></path><path fill="transparent" fill-opacity="1" stroke="#000000" stroke-opacity="1" stroke-width="0.5" fill-rule="evenodd" display="undefined" stroke-linecap="undefined" stroke-linejoin="undefined" stroke-dasharray="undefined" paint-order="undefined" id="tSvgecd4ea12e0" d="M 1993.2498779296875 2498L 1993.8112128456269 2499.727388770372L 1995.6275192204255 2499.7274575140627L 1994.1581369027494 2500.795111229628L 1994.7193410604186 2502.5225424859373L 1993.2498779296875 2501.455L 1991.7804147989564 2502.5225424859373L 1992.3416189566256 2500.795111229628L 1990.8722366389495 2499.7274575140627L 1992.6885430137481 2499.727388770372Z" title="Star 2"></path><path fill="transparent" fill-opacity="1" stroke="#000000" stroke-opacity="1" stroke-width="0.5" fill-rule="evenodd" display="undefined" stroke-linecap="undefined" stroke-linejoin="undefined" stroke-dasharray="undefined" paint-order="undefined" id="tSvg1785bfd9109" d="M 1993.2498779296875 2505L 1993.8112128456269 2506.727388770372L 1995.6275192204255 2506.7274575140627L 1994.1581369027494 2507.795111229628L 1994.7193410604186 2509.5225424859373L 1993.2498779296875 2508.455L 1991.7804147989564 2509.5225424859373L 1992.3416189566256 2507.795111229628L 1990.8722366389495 2506.7274575140627L 1992.6885430137481 2506.727388770372Z" title="Star 3"></path><path fill="transparent" fill-opacity="1" stroke="#000000" stroke-opacity="1" stroke-width="0.5" id="tSvg103ac8c7fd4" title="Rectangle 6" d="M 1998 2493L 2009.965156794425 2493L 2009.965156794425 2495L 1998 2495Z" style="transform: rotate(0deg);"></path><path fill="transparent" fill-opacity="1" stroke="#000000" stroke-opacity="1" stroke-width="0.5" fill-rule="evenodd" display="undefined" stroke-linecap="undefined" stroke-linejoin="undefined" stroke-dasharray="undefined" paint-order="undefined" id="tSvg17624a1d954" title="Rectangle 7" d="M 1998 2500L 2009.965156794425 2500L 2009.965156794425 2502L 1998 2502Z" style="transform: rotate(0deg);" rx="0" ry="0"></path><path fill="transparent" fill-opacity="1" stroke="#000000" stroke-opacity="1" stroke-width="0.5" fill-rule="evenodd" display="undefined" stroke-linecap="undefined" stroke-linejoin="undefined" stroke-dasharray="undefined" paint-order="undefined" id="tSvga628965950" title="Rectangle 8" d="M 1998 2507L 2009.965156794425 2507L 2009.965156794425 2509L 1998 2509Z" style="transform: rotate(0deg);" rx="0" ry="0"></path><defs> </defs></svg> 