<?xml version="1.0" encoding="UTF-8"?> <svg xmlns="http://www.w3.org/2000/svg" width="39" height="37" viewBox="0 0 39 37" fill="none"><g clip-path="url(#clip0_11_30)"><path d="M21.5184 20.6982C21.8314 21.7713 21.8203 22.8333 21.4849 23.8842C21.1719 24.9126 20.6129 25.8293 19.8081 26.6342C19.0032 27.4391 18.0082 28.0763 16.8233 28.5458C15.6383 28.9929 14.3304 29.183 12.8995 29.1159C11.5804 29.0488 10.373 28.7917 9.27749 28.3446C8.20432 27.875 7.27646 27.2378 6.49394 26.433C5.73377 25.6281 5.15246 24.6779 4.75002 23.5823C4.36994 22.4644 4.21343 21.2347 4.28051 19.8933L5.52137 19.3567C5.38722 20.6087 5.44312 21.7937 5.68905 22.9116C5.95735 24.0295 6.40451 25.0132 7.03053 25.8628C7.6789 26.7124 8.49497 27.3943 9.47871 27.9086C10.4625 28.4228 11.6027 28.7135 12.8995 28.7805C14.1292 28.8476 15.2694 28.6687 16.3202 28.2439C17.371 27.8191 18.243 27.249 18.9361 26.5336C19.6516 25.7958 20.1546 24.9685 20.4453 24.0518C20.7583 23.1352 20.7694 22.2185 20.4788 21.3018C20.3446 20.8994 20.0987 20.5081 19.741 20.128C19.4056 19.7479 18.992 19.4014 18.5001 19.0884C18.0082 18.753 17.4605 18.4512 16.8568 18.1829C16.2532 17.8922 15.6383 17.6351 15.0123 17.4116C13.5814 16.9197 12.3293 16.439 11.2562 15.9695C10.2053 15.5 9.32221 15.0081 8.60676 14.4938C7.91366 13.9573 7.39943 13.376 7.06406 12.7499C6.72869 12.1239 6.56101 11.4196 6.56101 10.6371C6.58337 9.69808 6.79577 8.8932 7.19821 8.22246C7.62301 7.55172 8.17078 7.00396 8.84151 6.57916C9.51225 6.15436 10.2612 5.85252 11.0885 5.67366C11.9157 5.47244 12.7541 5.38301 13.6037 5.40537C15.3029 5.47244 16.745 6.06492 17.93 7.18282C19.1373 8.30071 19.9422 9.77633 20.3446 11.6097L19.1373 12.2133C19.1373 11.4085 19.0032 10.6259 18.7349 9.86576C18.4889 9.1056 18.1312 8.42368 17.6617 7.82002C17.1922 7.21636 16.6221 6.72448 15.9513 6.3444C15.2806 5.96431 14.5092 5.76309 13.6373 5.74073C12.9889 5.71838 12.307 5.78545 11.5915 5.94196C10.8984 6.0761 10.2612 6.32204 9.67994 6.67977C9.09863 7.01513 8.61794 7.46229 8.23785 8.02124C7.88013 8.58019 7.70126 9.25092 7.70126 10.0334C7.70126 11.4196 8.32728 12.5822 9.57933 13.5213C10.8537 14.4603 12.7094 15.3546 15.1464 16.2042C15.8619 16.4502 16.555 16.7296 17.2257 17.0426C17.9188 17.3333 18.556 17.6687 19.1373 18.0487C19.7186 18.4065 20.2217 18.8089 20.6465 19.2561C21.0713 19.6809 21.3619 20.1616 21.5184 20.6982Z" fill="black"></path><path d="M7.80081 30.502L18.9731 11.3614L19.9482 10.9156V29.9726L30.814 11.3614L31.7892 10.9156V30.502H30.814V11.8629L19.9482 30.502H18.9731V11.8629L8.10728 30.502H7.80081Z" fill="black"></path><circle cx="19.4634" cy="18.439" r="18.1829" stroke="black" stroke-width="0.512195"></circle></g><defs><clipPath id="clip0_11_30"><rect width="39" height="37" fill="white"></rect></clipPath></defs></svg> 